<?xml version="1.0" encoding="UTF-8" standalone="no"?>
<!DOCTYPE svg PUBLIC "-//W3C//DTD SVG 1.1//EN"
 "http://www.w3.org/Graphics/SVG/1.1/DTD/svg11.dtd">
<!-- Generated by graphviz version 2.26.3 (20100126.1600)
 -->
<!-- Title: G Pages: 1 -->
<svg width="774pt" height="674pt"
 viewBox="0.00 0.00 774.00 674.00" xmlns="http://www.w3.org/2000/svg" xmlns:xlink="http://www.w3.org/1999/xlink">
<g id="graph1" class="graph" transform="scale(1 1) rotate(0) translate(4 670)">
<title>G</title>
<polygon fill="white" stroke="white" points="-4,5 -4,-670 771,-670 771,5 -4,5"/>
<g id="graph2" class="cluster"><title>cluster_global</title>
<polyline fill="none" stroke="gray" points="317,-152 746,-152 "/>
<path fill="none" stroke="gray" d="M746,-152C752,-152 758,-158 758,-164"/>
<polyline fill="none" stroke="gray" points="758,-164 758,-646 "/>
<path fill="none" stroke="gray" d="M758,-646C758,-652 752,-658 746,-658"/>
<polyline fill="none" stroke="gray" points="746,-658 317,-658 "/>
<path fill="none" stroke="gray" d="M317,-658C311,-658 305,-652 305,-646"/>
<polyline fill="none" stroke="gray" points="305,-646 305,-164 "/>
<path fill="none" stroke="gray" d="M305,-164C305,-158 311,-152 317,-152"/>
<text text-anchor="middle" x="531.5" y="-644.1" font-family="Times Roman,serif" font-size="11.00" fill="gray">global</text>
</g>
<!-- \\TestExample -->
<g id="node2" class="node"><title>\\TestExample</title>
<a xlink:href="tests.example.test.old.html" xlink:title="TestExample" target="_parent">
<polygon fill="none" stroke="black" points="726,-412 636,-412 636,-376 726,-376 726,-412"/>
<text text-anchor="middle" x="681" y="-391.1" font-family="Courier,monospace" font-size="11.00">TestExample</text>
</a>
</g>
<!-- \\PHPUnit_Framework_TestCase -->
<g id="node13" class="node"><title>\\PHPUnit_Framework_TestCase</title>
<ellipse fill="none" stroke="black" cx="372" cy="-126" rx="166.967" ry="18"/>
<text text-anchor="middle" x="372" y="-121.9" font-family="Times Roman,serif" font-size="14.00" fill="gray">\PHPUnit_Framework_TestCase</text>
</g>
<!-- \\TestExample&#45;&gt;\\PHPUnit_Framework_TestCase -->
<g id="edge3" class="edge"><title>\\TestExample&#45;&gt;\\PHPUnit_Framework_TestCase</title>
<path fill="none" stroke="black" d="M635.169,-382.633C626.608,-378.807 618.365,-373.728 612,-367 541.583,-292.574 618.911,-213.352 540,-148 536.333,-144.963 532.457,-142.222 528.415,-139.752"/>
<polygon fill="none" stroke="black" points="529.767,-136.501 519.315,-134.767 526.404,-142.641 529.767,-136.501"/>
</g>
<!-- \\TestGeoname -->
<g id="node3" class="node"><title>\\TestGeoname</title>
<a xlink:href="tests.geoname.test.html" xlink:title="TestGeoname" target="_parent">
<polygon fill="none" stroke="black" points="726,-466 636,-466 636,-430 726,-430 726,-466"/>
<text text-anchor="middle" x="681" y="-445.1" font-family="Courier,monospace" font-size="11.00">TestGeoname</text>
</a>
</g>
<!-- \\TestGeoname&#45;&gt;\\PHPUnit_Framework_TestCase -->
<g id="edge5" class="edge"><title>\\TestGeoname&#45;&gt;\\PHPUnit_Framework_TestCase</title>
<path fill="none" stroke="black" d="M635.209,-437.082C626.542,-433.219 618.247,-428.011 612,-421 528.522,-327.313 634.208,-230.889 540,-148 536.489,-144.911 532.766,-142.12 528.871,-139.604"/>
<polygon fill="none" stroke="black" points="530.494,-136.499 520.085,-134.521 526.989,-142.558 530.494,-136.499"/>
</g>
<!-- \\Create_Blocs_Table -->
<g id="node4" class="node"><title>\\Create_Blocs_Table</title>
<a xlink:href="migrations.2013_02_04_112237_create_blocs_table.html" xlink:title="Create_Blocs_Table" target="_parent">
<polygon fill="none" stroke="black" points="750,-520 612,-520 612,-484 750,-484 750,-520"/>
<text text-anchor="middle" x="681" y="-499.1" font-family="Courier,monospace" font-size="11.00">Create_Blocs_Table</text>
</a>
</g>
<!-- \\bloc -->
<g id="node5" class="node"><title>\\bloc</title>
<a xlink:href="models.bloc.html" xlink:title="bloc" target="_parent">
<polygon fill="none" stroke="black" points="708,-304 654,-304 654,-268 708,-268 708,-304"/>
<text text-anchor="middle" x="681" y="-283.1" font-family="Courier,monospace" font-size="11.00">bloc</text>
</a>
</g>
<!-- \\BaseModel -->
<g id="node16" class="node"><title>\\BaseModel</title>
<ellipse fill="none" stroke="black" cx="372" cy="-72" rx="68.7933" ry="18"/>
<text text-anchor="middle" x="372" y="-67.9" font-family="Times Roman,serif" font-size="14.00" fill="gray">\BaseModel</text>
</g>
<!-- \\bloc&#45;&gt;\\BaseModel -->
<g id="edge7" class="edge"><title>\\bloc&#45;&gt;\\BaseModel</title>
<path fill="none" stroke="black" d="M653.762,-280.54C639.84,-276.565 623.463,-269.906 612,-259 555.503,-205.252 601.906,-146.418 540,-99 514.716,-79.6332 480.932,-71.79 450.291,-69.1992"/>
<polygon fill="none" stroke="black" points="450.249,-65.6886 440.037,-68.5129 449.781,-72.673 450.249,-65.6886"/>
</g>
<!-- \\location -->
<g id="node6" class="node"><title>\\location</title>
<a xlink:href="models.location.html" xlink:title="location" target="_parent">
<polygon fill="none" stroke="black" points="716,-358 646,-358 646,-322 716,-322 716,-358"/>
<text text-anchor="middle" x="681" y="-337.1" font-family="Courier,monospace" font-size="11.00">location</text>
</a>
</g>
<!-- \\location&#45;&gt;\\BaseModel -->
<g id="edge9" class="edge"><title>\\location&#45;&gt;\\BaseModel</title>
<path fill="none" stroke="black" d="M645.245,-332.516C633.343,-328.471 620.873,-322.314 612,-313 542.781,-240.344 616.571,-163.862 540,-99 515.084,-77.8941 480.363,-69.9808 448.95,-67.8023"/>
<polygon fill="none" stroke="black" points="449.049,-64.3029 438.883,-67.2871 448.691,-71.2938 449.049,-64.3029"/>
</g>
<!-- \\Geoname_Controller -->
<g id="node7" class="node"><title>\\Geoname_Controller</title>
<a xlink:href="controllers.geoname.html" xlink:title="Geoname_Controller" target="_parent">
<polygon fill="none" stroke="black" points="750,-574 612,-574 612,-538 750,-538 750,-574"/>
<text text-anchor="middle" x="681" y="-553.1" font-family="Courier,monospace" font-size="11.00">Geoname_Controller</text>
</a>
</g>
<!-- \\Base_Controller -->
<g id="node9" class="node"><title>\\Base_Controller</title>
<a xlink:href="controllers.base.html" xlink:title="Base_Controller" target="_parent">
<polygon fill="none" stroke="black" points="431,-601 313,-601 313,-565 431,-565 431,-601"/>
<text text-anchor="middle" x="372" y="-580.1" font-family="Courier,monospace" font-size="11.00">Base_Controller</text>
</a>
</g>
<!-- \\Geoname_Controller&#45;&gt;\\Base_Controller -->
<g id="edge11" class="edge"><title>\\Geoname_Controller&#45;&gt;\\Base_Controller</title>
<path fill="none" stroke="black" d="M611.654,-562.059C560.882,-566.496 492.266,-572.491 441.465,-576.93"/>
<polygon fill="none" stroke="black" points="440.889,-573.467 431.231,-577.824 441.498,-580.441 440.889,-573.467"/>
</g>
<!-- \\Bloc_Controller -->
<g id="node8" class="node"><title>\\Bloc_Controller</title>
<a xlink:href="controllers.bloc.html" xlink:title="Bloc_Controller" target="_parent">
<polygon fill="none" stroke="black" points="740,-628 622,-628 622,-592 740,-592 740,-628"/>
<text text-anchor="middle" x="681" y="-607.1" font-family="Courier,monospace" font-size="11.00">Bloc_Controller</text>
</a>
</g>
<!-- \\Bloc_Controller&#45;&gt;\\Base_Controller -->
<g id="edge13" class="edge"><title>\\Bloc_Controller&#45;&gt;\\Base_Controller</title>
<path fill="none" stroke="black" d="M621.787,-604.826C570.258,-600.324 495.528,-593.794 441.242,-589.05"/>
<polygon fill="none" stroke="black" points="441.279,-585.54 431.012,-588.156 440.67,-592.514 441.279,-585.54"/>
</g>
<!-- \\Controller -->
<g id="node21" class="node"><title>\\Controller</title>
<ellipse fill="none" stroke="black" cx="66" cy="-583" rx="64.8203" ry="18"/>
<text text-anchor="middle" x="66" y="-578.9" font-family="Times Roman,serif" font-size="14.00" fill="gray">\Controller</text>
</g>
<!-- \\Base_Controller&#45;&gt;\\Controller -->
<g id="edge15" class="edge"><title>\\Base_Controller&#45;&gt;\\Controller</title>
<path fill="none" stroke="black" d="M312.637,-583C263.918,-583 194.618,-583 141.876,-583"/>
<polygon fill="none" stroke="black" points="141.559,-579.5 131.559,-583 141.559,-586.5 141.559,-579.5"/>
</g>
<!-- \\geoname -->
<g id="node10" class="node"><title>\\geoname</title>
<a xlink:href="libraries.geoname.html" xlink:title="geoname" target="_parent">
<polygon fill="none" stroke="black" points="713,-250 649,-250 649,-214 713,-214 713,-250"/>
<text text-anchor="middle" x="681" y="-229.1" font-family="Courier,monospace" font-size="11.00">geoname</text>
</a>
</g>
<!-- \\basemodel -->
<g id="node11" class="node"><title>\\basemodel</title>
<a xlink:href="libraries.basemodel.html" xlink:title="basemodel" target="_parent">
<polygon fill="none" stroke="black" points="719,-196 643,-196 643,-160 719,-160 719,-196"/>
<text text-anchor="middle" x="681" y="-175.1" font-family="Courier,monospace" font-size="11.00">basemodel</text>
</a>
</g>
<!-- \\Eloquent -->
<g id="node23" class="node"><title>\\Eloquent</title>
<ellipse fill="none" stroke="black" cx="372" cy="-18" rx="59.065" ry="18"/>
<text text-anchor="middle" x="372" y="-13.9" font-family="Times Roman,serif" font-size="14.00" fill="gray">\Eloquent</text>
</g>
<!-- \\basemodel&#45;&gt;\\Eloquent -->
<g id="edge17" class="edge"><title>\\basemodel&#45;&gt;\\Eloquent</title>
<path fill="none" stroke="black" d="M667.732,-159.811C645.138,-130.338 596.146,-72.6626 540,-45 509.513,-29.9794 472.497,-23.0064 440.979,-19.8814"/>
<polygon fill="none" stroke="black" points="441.223,-16.3895 430.954,-18.9967 440.607,-23.3624 441.223,-16.3895"/>
</g>
</g>
</svg>
